<svg width="134" height="147" viewBox="0 0 134 147" fill="none" xmlns="http://www.w3.org/2000/svg">
<path d="M99.1646 104.294C97.4392 109.387 95.7921 114.364 94.1059 119.303C94.1451 119.341 94.1844 119.341 94.2236 119.38C94.3804 119.226 94.5373 119.11 94.655 118.955C98.2627 114.441 102.459 110.506 106.772 106.724C107.753 105.837 108.89 105.143 110.027 104.371C112.968 102.403 115.87 100.397 118.811 98.4676C121.556 96.6542 124.497 95.3038 127.791 94.7636C128.262 94.6864 128.85 94.3778 129.203 94.9179C129.556 95.4967 129.007 95.8439 128.693 96.2298C126.223 99.5865 123.438 102.635 120.38 105.451C117.791 107.843 115.282 110.313 112.772 112.782C110.733 114.788 108.302 116.216 105.87 117.644C103.321 119.148 100.694 120.499 98.145 121.926C97.2039 122.428 96.3804 123.084 95.4393 123.624C94.3805 124.241 93.3609 124.859 92.2629 125.438C91.9099 125.63 91.6354 125.823 91.4786 126.209C90.5374 128.524 89.557 130.801 88.6159 133.116C88.5767 133.193 88.6159 133.27 88.6551 133.424C88.8904 133.231 89.1257 133.116 89.3218 132.923C92.8511 129.566 97.0078 127.174 101.478 125.167C105.086 123.547 108.615 121.695 112.145 119.843C114.811 118.454 117.595 117.374 120.38 116.293C120.693 116.177 121.046 116.062 121.399 116.023C122.144 115.946 122.419 116.37 122.066 117.026C121.791 117.489 121.478 117.952 121.125 118.338C119.203 120.46 117.36 122.659 115.321 124.666C112.733 127.212 109.596 129.064 106.458 130.878C101.596 133.694 96.498 136.087 91.3609 138.402C89.2825 139.328 87.0866 139.945 84.9298 140.717C84.5768 140.832 84.2239 141.18 84.0278 141.527C83.0867 142.916 82.224 144.343 81.322 145.771C81.0475 146.195 80.8122 146.658 80.1848 146.736C79.7534 146.35 79.9103 145.925 80.1063 145.578C80.6554 144.421 81.2436 143.263 81.871 142.183C82.1847 141.643 82.3416 141.141 82.0671 140.562C81.4789 139.289 80.9691 137.977 80.3024 136.742C78.3809 133.231 76.4986 129.682 74.4595 126.209C71.1263 120.499 69.2439 114.325 68.4204 107.805C68.0675 105.104 67.9106 102.403 67.7145 99.7023C67.5969 98.1589 68.0283 96.6928 68.7734 95.3423C68.891 95.1108 69.0478 94.8408 69.2047 94.6478C69.6753 94.0691 70.2243 94.1077 70.5772 94.8022C71.5968 96.9628 72.5772 99.1235 73.5575 101.284C75.6751 105.953 77.126 110.814 78.5378 115.714C79.7926 120.113 81.0475 124.55 82.3024 128.949C82.8906 131.032 83.2043 133.116 83.2828 135.276C83.322 136.434 83.4788 137.591 83.7141 138.749C87.9884 133.193 89.7924 126.595 92.1844 120.19C91.9884 120.036 91.8315 119.92 91.6746 119.843C89.9884 119.187 88.5767 118.107 87.4003 116.795C84.9298 114.017 82.3808 111.316 79.9887 108.461C77.0868 105.027 75.0868 101.053 73.4006 96.9243C72.4203 94.5321 71.5968 92.0627 70.7733 89.5548C70.0674 87.4327 70.6164 85.3106 71.0478 83.2271C71.2046 82.4554 71.8713 82.2239 72.4988 82.7255C73.0478 83.1885 73.5575 83.7673 73.9497 84.3846C74.7732 85.6579 75.4791 87.0083 76.2241 88.3587C78.3025 92.0627 80.4593 95.7282 82.3808 99.5094C84.5376 103.792 86.9689 107.921 89.2434 112.126C90.1845 113.824 90.9687 115.599 91.8315 117.335C92.0275 117.721 92.2629 118.107 92.4589 118.531C92.5374 118.531 92.6158 118.492 92.6943 118.492C94.3413 113.515 96.0275 108.499 97.6745 103.522C97.596 103.406 97.5568 103.329 97.4784 103.291C94.1844 102.557 91.6354 100.628 89.2434 98.5062C87.3611 96.8085 85.6748 94.8793 83.9494 93.0273C82.6553 91.6383 81.8318 89.9792 81.0083 88.2816C79.9495 86.1209 78.8907 83.9216 77.7142 81.8381C76.3025 79.3302 75.4791 76.6293 75.0477 73.8127C74.9693 73.3111 74.9693 72.8095 75.0477 72.3079C75.2438 71.2662 75.9888 70.8804 76.9692 71.2662C77.9495 71.652 78.6946 72.3851 79.2436 73.234C80.4593 75.086 81.7141 76.938 82.8121 78.8672C84.6552 82.0696 86.6551 85.1949 89.0864 88.05C91.8315 91.3297 94.5373 94.725 96.8509 98.3133C97.3607 99.0849 97.8705 99.8952 98.4195 100.783C98.5372 100.513 98.6548 100.358 98.7333 100.165C99.4391 97.8117 100.145 95.4967 100.851 93.1431C101.008 92.6801 101.086 92.2942 100.576 91.9084C98.2234 90.1335 96.6156 87.78 95.2824 85.272C92.3805 79.7932 90.1845 74.0056 88.7335 67.948C88.4198 66.559 88.3414 65.0928 88.263 63.6652C88.1061 61.7361 88.263 59.7683 87.7924 57.8777C87.714 57.6076 87.8708 57.106 88.0669 56.9903C88.3022 56.8745 88.7727 56.9517 89.008 57.106C90.1845 57.8391 91.1256 58.8809 91.8315 60.0384C92.2236 60.6943 92.5766 61.4274 92.8511 62.1219C94.4589 66.0574 96.0275 69.9929 97.6745 73.8899C98.8509 76.6679 99.6352 79.5231 100.341 82.4554C100.851 84.5775 101.4 86.661 101.988 88.9761C102.145 88.6288 102.263 88.4359 102.302 88.2044C102.616 86.854 102.968 85.5035 103.243 84.1145C103.361 83.5744 103.321 83.0342 103.282 82.494C103.165 80.0247 103.008 77.5167 102.929 75.0474C102.772 71.0347 103.086 67.0606 103.831 63.1251C104.655 58.9195 105.361 54.7138 106.106 50.5082C106.419 48.6948 107.282 47.1515 108.145 45.5695C108.184 45.4538 108.262 45.338 108.341 45.2995C108.694 45.068 109.047 44.7207 109.4 44.7207C109.909 44.6821 110.066 45.2223 110.145 45.6467C110.262 46.2255 110.38 46.8042 110.38 47.383C110.419 50.1996 110.458 53.0548 110.38 55.8714C110.302 58.8037 110.145 61.7746 109.949 64.707C109.753 68.1795 109.007 71.5363 108.105 74.8931C107.674 76.4364 107.282 77.9797 106.772 79.4845C106.38 80.6034 105.713 81.6452 105.243 82.7641C104.89 83.6129 104.655 84.5004 104.38 85.3492C104.459 85.3878 104.537 85.4264 104.615 85.4649C104.772 85.1949 104.968 84.9248 105.125 84.6547C106.694 82.031 108.223 79.4459 109.792 76.8222C110.733 75.2789 111.635 73.7355 112.576 72.2308C114.262 69.4914 115.87 66.7519 117.674 64.0897C118.654 62.6235 119.831 61.3502 121.007 59.9998C121.713 59.1895 122.654 58.6494 123.674 58.3407C124.615 58.032 125.046 58.4565 124.85 59.3825C124.811 59.4982 124.772 59.614 124.733 59.7297C123.242 63.6652 121.831 67.6008 119.752 71.3048C118.38 73.697 117.282 76.2435 115.948 78.6742C113.517 83.1499 110.419 87.0855 106.419 90.2879C105.321 91.1753 104.38 92.2171 102.968 92.6801C102.772 92.7572 102.537 93.0273 102.459 93.2588C101.753 95.6124 101.047 98.0046 100.459 100.474C100.694 100.204 100.929 99.8952 101.204 99.6637C102.498 98.3133 103.792 96.9243 105.125 95.651C108.38 92.5643 111.831 89.6706 114.89 86.3138C118.537 82.3011 122.772 78.9057 127.674 76.4364C128.968 75.7805 130.34 75.2403 131.713 74.7773C132.928 74.3915 133.477 74.9316 133.203 76.1277C133.124 76.5136 133.007 76.8994 132.85 77.2467C131.791 79.5231 130.458 81.6066 128.615 83.3814C127.046 84.8862 125.478 86.3524 123.831 87.7414C118.733 92.0627 113.635 96.3455 108.498 100.59C107.36 101.554 106.145 102.403 104.89 103.213C103.243 104.217 101.4 104.834 99.1646 104.294Z" fill="#FFD889"/>
<path d="M40.2597 41.3733C40.4959 48.4992 40.7322 55.6252 40.9685 62.7896C41.0473 62.7896 41.0867 62.8281 41.1654 62.8281C41.3229 62.4815 41.5199 62.1733 41.6774 61.8267C44.0402 56.5881 47.3481 51.9274 51.5224 47.9214C53.0976 46.4192 54.7909 45.0711 56.6418 43.9155C59.4378 42.2207 62.4701 41.4503 65.7386 41.6429C68.9284 41.797 73.1814 44.1081 73.4571 49C73.5752 51.0029 73.2208 52.8518 72.4332 54.6622C70.031 60.2859 65.7386 64.0993 60.3829 66.9496C57.9413 68.2593 55.4604 69.4919 52.7825 70.2237C49.9865 70.9556 47.1512 71.1482 44.2765 70.6089C43.292 70.4163 42.3469 69.9926 41.2048 69.6459C41.5199 79.1215 41.8349 88.5971 42.1499 98.3038C42.465 97.8415 42.6618 97.6104 42.8194 97.3793C45.4578 92.603 48.4901 88.0963 51.9949 83.9363C56.0905 79.083 60.186 74.2296 64.3209 69.4148C64.8328 68.7985 65.5023 68.2593 66.1324 67.72C66.605 67.3348 67.1957 67.2193 67.7864 67.6045C68.2983 67.9511 68.5346 68.5289 68.2589 69.2608C65.6992 76.926 63.3364 84.7067 59.5953 91.9482C57.6263 95.723 54.9484 98.9971 51.9949 102.079C50.341 103.812 48.2145 105.045 46.0486 106.123C45.3004 106.508 44.3946 106.624 43.5676 106.855C43.2132 106.932 42.8982 106.97 42.5044 107.047C42.5044 108.126 42.465 109.127 42.5044 110.129C42.6619 114.982 42.8194 119.836 42.9769 124.689C43.0163 125.536 43.095 126.384 43.1344 127.231C43.1344 127.578 43.1344 127.925 43.0163 128.271C42.78 129.042 42.2287 129.465 41.4805 129.504C40.7323 129.542 40.0628 129.157 39.8265 128.425C39.669 128.002 39.6296 127.501 39.5902 127.039C39.4721 122.879 39.354 118.719 39.2358 114.559C39.1965 113.596 39.1177 112.633 39.0389 111.631C38.9208 111.631 38.8026 111.593 38.7239 111.593C36.7549 112.363 34.7465 112.209 32.7381 111.785C27.7762 110.745 23.8776 108.088 20.7272 104.313C18.6401 101.809 16.7892 99.1512 15.5291 96.1082C15.4109 95.8001 15.2533 95.4534 15.0564 95.1838C12.6149 91.2164 12.0636 86.7867 12.1423 82.28C12.1817 80.5467 12.6543 78.9289 13.6388 77.4267C15.4503 74.7304 18.0494 74.0371 21.121 74.4608C22.6962 74.6919 24.0351 75.4237 25.3347 76.3097C27.6581 77.8889 29.5877 79.8149 31.3204 81.9719C34.2739 85.6697 36.4005 89.7526 37.9757 94.1438C38.0938 94.4904 38.2119 94.7986 38.3301 95.1453C38.3695 95.2223 38.4088 95.2993 38.6057 95.3379C38.3694 88.0578 38.1331 80.7393 37.8969 73.3823C37.2668 73.3052 36.6367 73.1897 36.046 73.1126C29.8633 72.1111 24.2714 69.6845 18.9944 66.4489C17.0648 65.2548 15.2533 63.9452 13.4025 62.6741C8.75564 59.4 4.97515 55.24 1.39157 50.8874C0.958388 50.3481 0.564626 49.7318 0.249585 49.1155C-0.262355 48.114 0.0132474 47.4207 1.07651 46.9585C2.57295 46.3422 4.14817 46.034 5.72337 46.1881C7.77114 46.3807 9.81894 46.6888 11.8667 46.997C14.5052 47.4207 16.9861 48.4607 19.2307 49.8474C22.0267 51.6192 24.7833 53.4681 27.4611 55.3941C30.0602 57.2815 32.1474 59.7081 33.9588 62.3274C35.1403 64.0222 36.2823 65.7556 37.5425 67.643C37.5819 67.2193 37.6212 66.9496 37.6212 66.6415C37.4637 62.4815 37.3062 58.3215 37.1881 54.1615C37.1487 52.8903 37.1486 51.5807 37.1093 50.3096C37.0305 47.7674 36.9124 45.2637 36.873 42.7214C36.873 42.0666 36.5973 41.7199 36.046 41.3348C34.9434 40.5259 33.8801 39.6399 32.8956 38.677C27.1067 33.0533 24.9409 26.1199 25.3347 18.3006C25.4134 16.991 25.571 15.6814 25.7679 14.3717C26.398 10.3658 28.3669 6.97617 31.0448 3.9332C33.2107 1.46801 36.0854 0.158368 39.3933 0.00429361C41.953 -0.0727436 44.1977 0.890229 46.0486 2.62357C48.8446 5.28135 50.341 8.67098 51.2073 12.2917C52.1918 16.3747 51.9556 20.4577 51.3649 24.5792C50.9711 27.4681 49.9866 30.1644 48.6083 32.7451C47.9782 33.9392 47.1906 35.0947 46.2848 36.0962C44.6309 37.9836 42.8981 39.794 40.5747 40.9881C40.4566 41.1422 40.4172 41.2577 40.2597 41.3733Z" fill="#FFD889"/>
<path d="M36.1645 71.1106C35.9282 70.8409 35.6132 70.5713 35.4163 70.2632C33.6442 67.798 31.4389 65.718 28.9973 63.9076C23.9567 60.1328 18.7979 56.512 13.1271 53.6231C11.7882 52.9298 10.3705 52.5061 8.91348 52.0439C6.35378 51.235 3.79408 50.5031 1.23438 49.6172C1.62818 49.6557 2.02194 49.6557 2.37636 49.7327C5.29048 50.5031 8.20464 51.1965 11.0794 52.1209C12.6546 52.6216 14.151 53.392 15.5687 54.2394C21.4363 57.6676 27.107 61.4039 32.2265 65.8335C33.841 67.2202 34.9437 68.9535 36.2432 70.6098C36.322 70.7254 36.322 70.8795 36.3614 70.995C36.2826 70.995 36.2432 71.072 36.1645 71.1106Z" fill="#283E4D"/>
<path d="M37.5077 108.515C37.232 108.092 36.917 107.707 36.7201 107.283C33.6091 101.158 29.8286 95.4576 25.4574 90.142C22.7402 86.8294 19.5898 83.825 16.6362 80.6664C16.5181 80.5124 16.2819 80.4738 16.2031 80.2812C17.0695 80.5124 17.6207 81.0516 18.2115 81.5909C22.7795 85.9435 26.8357 90.6813 30.4193 95.8813C33.0971 99.7331 35.5387 103.739 37.6258 107.938C37.7046 108.053 37.7047 108.207 37.7834 108.323C37.7047 108.4 37.5864 108.477 37.5077 108.515Z" fill="#283E4D"/>
<path d="M65.0337 71.7238C64.9943 71.8394 64.9549 71.9164 64.9155 71.9935C61.0169 76.8083 58.0634 82.1624 54.9917 87.4395C51.9595 92.6009 48.7697 97.6469 44.7529 102.115C44.241 102.693 43.6896 103.194 43.1383 103.771C43.0595 103.733 43.0202 103.656 42.9414 103.617C43.0202 103.425 43.0989 103.232 43.217 103.078C47.7458 98.2632 51.3294 92.755 54.6767 87.0928C57.1182 82.9713 59.6779 78.8883 62.2376 74.8439C62.9859 73.6498 63.9704 72.6483 64.8368 71.5312C64.8761 71.6468 64.9549 71.6853 65.0337 71.7238Z" fill="#283E4D"/>
<path d="M67.4338 46.8438C58.1007 52.8141 49.5159 59.4778 42.9788 68.6453C42.7426 68.106 43.0576 67.7594 43.2545 67.4512C44.1602 66.1801 45.0659 64.909 46.0898 63.7149C48.492 60.8645 51.2093 58.2838 54.1234 55.9341C56.2106 54.2393 58.3764 52.6601 60.4635 50.9652C62.4325 49.386 64.6378 48.2689 66.8431 47.1134C67.04 46.9978 67.2369 46.9593 67.4338 46.8438Z" fill="#283E4D"/>
<path d="M37.8519 39.8728C37.4581 28.2016 37.4975 16.569 37.8125 4.8979C37.9307 4.8979 38.0489 4.85938 38.167 4.85938C38.2458 5.09049 38.3245 5.32159 38.3245 5.55271C38.2851 12.0238 38.167 18.5335 38.1276 25.0046C38.0882 29.1261 38.1669 33.2476 38.2063 37.3691C38.2063 38.2165 38.2063 39.0639 38.2063 39.9113C38.1276 39.9113 38.0095 39.8728 37.8519 39.8728Z" fill="#283E4D"/>
</svg>
